<svg xmlns="http://www.w3.org/2000/svg" xml:space="preserve" width="1440" height="1440"><defs><linearGradient x1="0" y1="0" x2="1" y2="0" gradientUnits="userSpaceOnUse" gradientTransform="scale(8321.16 -8321.16) rotate(-45 -.093 -.484)" spreadMethod="pad" id="b"><stop style="stop-opacity:1;stop-color:#4b8cd1" offset="0"/><stop style="stop-opacity:1;stop-color:#4b8cd1" offset="0"/><stop style="stop-opacity:1;stop-color:#f03660" offset="1"/></linearGradient><linearGradient x1="0" y1="0" x2="1" y2="0" gradientUnits="userSpaceOnUse" gradientTransform="scale(8321.16 -8321.16) rotate(-45 -.185 -.446)" spreadMethod="pad" id="d"><stop style="stop-opacity:1;stop-color:#4b8cd1" offset="0"/><stop style="stop-opacity:1;stop-color:#4b8cd1" offset="0"/><stop style="stop-opacity:1;stop-color:#f03660" offset="1"/></linearGradient><clipPath clipPathUnits="userSpaceOnUse" id="a"><path d="M5345.84 5164.33c-205.46 0-368.38-66.21-488.69-198.54-120.34-132.37-180.48-304.98-180.48-517.84 0-212.88 61.53-385.52 184.66-517.85 123.08-132.37 282.74-198.53 478.97-198.53 201.75 0 365.13 65.26 490.08 195.76 124.95 130.51 187.41 304.04 187.41 520.62 0 216.58-61.56 390.12-184.64 520.63-123.13 130.49-285.56 195.75-487.31 195.75z"/></clipPath><clipPath clipPathUnits="userSpaceOnUse" id="c"><path d="M7488.98 6085.09c-244.53 0-442.75 198.23-442.75 442.75 0 244.53 198.22 442.75 442.75 442.75s442.75-198.22 442.75-442.75c0-244.52-198.22-442.75-442.75-442.75zm355.42-2922.73h-705.26v2548.97h705.26ZM6375.49 6789.51c-244.53 0-442.76 198.23-442.76 442.75s198.23 442.75 442.76 442.75c244.52 0 442.74-198.23 442.74-442.75s-198.22-442.75-442.74-442.75zm353.14-3627.15h-525.76l-104.55 341.53c-87.02-125.9-210.12-226.76-369.29-302.66-159.23-75.88-334.15-113.85-524.79-113.85-242.51 0-458.63 56.03-648.34 168-189.78 111.99-337.37 271.16-442.88 477.58-105.51 206.39-158.27 442.88-158.27 709.43 0 264.7 52.76 500.23 158.27 706.65 105.51 206.4 253.1 365.59 442.88 477.59 189.71 111.99 405.83 168 648.34 168 177.7 0 337.81-27.33 480.36-81.91 142.52-54.62 257.28-132.85 344.31-234.64v937.67h699.72zM3311.02 6085.09c-244.53 0-442.75 198.23-442.75 442.75 0 244.53 198.22 442.75 442.75 442.75 244.52 0 442.75-198.22 442.75-442.75 0-244.52-198.23-442.75-442.75-442.75zm352.62-2922.73h-705.25v2548.97h705.25zm3434.8 5634.51H2003.13V2003.13h6793.74v5095.3c0 938.03-760.42 1698.44-1698.43 1698.44z"/></clipPath></defs><g clip-path="url(#a)" transform="matrix(.13333 0 0 -.13333 0 1440)"><path d="M5345.84 5164.33c-205.46 0-368.38-66.21-488.69-198.54-120.34-132.37-180.48-304.98-180.48-517.84 0-212.88 61.53-385.52 184.66-517.85 123.08-132.37 282.74-198.53 478.97-198.53 201.75 0 365.13 65.26 490.08 195.76 124.95 130.51 187.41 304.04 187.41 520.62 0 216.58-61.56 390.12-184.64 520.63-123.13 130.49-285.56 195.75-487.31 195.75" style="fill:url(#b);fill-opacity:1;fill-rule:nonzero;stroke:none"/></g><g clip-path="url(#c)" transform="matrix(.13333 0 0 -.13333 0 1440)"><path d="M7488.98 6085.09c-244.53 0-442.75 198.23-442.75 442.75 0 244.53 198.22 442.75 442.75 442.75s442.75-198.22 442.75-442.75c0-244.52-198.22-442.75-442.75-442.75zm355.42-2922.73h-705.26v2548.97h705.26ZM6375.49 6789.51c-244.53 0-442.76 198.23-442.76 442.75s198.23 442.75 442.76 442.75c244.52 0 442.74-198.23 442.74-442.75s-198.22-442.75-442.74-442.75zm353.14-3627.15h-525.76l-104.55 341.53c-87.02-125.9-210.12-226.76-369.29-302.66-159.23-75.88-334.15-113.85-524.79-113.85-242.51 0-458.63 56.03-648.34 168-189.78 111.99-337.37 271.16-442.88 477.58-105.51 206.39-158.27 442.88-158.27 709.43 0 264.7 52.76 500.23 158.27 706.65 105.51 206.4 253.1 365.59 442.88 477.59 189.71 111.99 405.83 168 648.34 168 177.7 0 337.81-27.33 480.36-81.91 142.52-54.62 257.28-132.85 344.31-234.64v937.67h699.72zM3311.02 6085.09c-244.53 0-442.75 198.23-442.75 442.75 0 244.53 198.22 442.75 442.75 442.75 244.52 0 442.75-198.22 442.75-442.75 0-244.52-198.23-442.75-442.75-442.75zm352.62-2922.73h-705.25v2548.97h705.25zm3434.8 5634.51H2003.13V2003.13h6793.74v5095.3c0 938.03-760.42 1698.44-1698.43 1698.44" style="fill:url(#d);fill-opacity:1;fill-rule:nonzero;stroke:none"/></g></svg>