<svg xmlns="http://www.w3.org/2000/svg" xml:space="preserve" width="1440" height="690.64"><defs><linearGradient x1="0" y1="0" x2="1" y2="0" gradientUnits="userSpaceOnUse" gradientTransform="scale(3836.73 -3836.73) rotate(-45 -.22 -.497)" spreadMethod="pad" id="b"><stop style="stop-opacity:1;stop-color:#4b8cd1" offset="0"/><stop style="stop-opacity:1;stop-color:#4b8cd1" offset="0"/><stop style="stop-opacity:1;stop-color:#f03660" offset="1"/></linearGradient><linearGradient x1="0" y1="0" x2="1" y2="0" gradientUnits="userSpaceOnUse" gradientTransform="scale(3836.73 -3836.73) rotate(-45 -.13 -.534)" spreadMethod="pad" id="d"><stop style="stop-opacity:1;stop-color:#4b8cd1" offset="0"/><stop style="stop-opacity:1;stop-color:#4b8cd1" offset="0"/><stop style="stop-opacity:1;stop-color:#f03660" offset="1"/></linearGradient><clipPath clipPathUnits="userSpaceOnUse" id="a"><path d="M3490.78 2908.86c-111.15 0-201.25 90.1-201.25 201.25s90.1 201.25 201.25 201.25 201.25-90.1 201.25-201.25-90.1-201.25-201.25-201.25zm161.55-1328.51h-320.57v1158.62h320.57zm-667.69 1648.7c-111.14 0-201.25 90.1-201.25 201.25s90.11 201.25 201.25 201.25c111.15 0 201.25-90.1 201.25-201.25s-90.1-201.25-201.25-201.25zm160.52-1648.7h-238.97l-47.53 155.24c-39.56-57.23-95.51-103.08-167.86-137.57-72.37-34.5-151.88-51.75-238.53-51.75-110.24 0-208.48 25.46-294.71 76.36-86.26 50.9-153.35 123.25-201.31 217.09-47.96 93.8-71.94 201.3-71.94 322.46 0 120.32 23.98 227.37 71.94 321.21 47.96 93.81 115.05 166.17 201.31 217.08 86.23 50.91 184.47 76.37 294.71 76.37 80.76 0 153.54-12.43 218.34-37.24 64.78-24.83 116.94-60.39 156.5-106.65v426.21h318.05zM1591.7 2908.86c-111.14 0-201.25 90.1-201.25 201.25s90.11 201.25 201.25 201.25c111.15 0 201.25-90.1 201.25-201.25s-90.1-201.25-201.25-201.25zm160.29-1328.51h-320.57v1158.62h320.57zm1561.27 2561.14H997.207V1053.43H4085.27v2316.04c0 426.37-345.64 772.02-772.01 772.02z"/></clipPath><clipPath clipPathUnits="userSpaceOnUse" id="c"><path d="M2516.63 2490.33c-93.4 0-167.46-30.09-222.14-90.24-54.7-60.17-82.03-138.64-82.03-235.38 0-96.77 27.96-175.24 83.93-235.38 55.94-60.17 128.52-90.25 217.72-90.25 91.7 0 165.96 29.67 222.76 88.99 56.79 59.31 85.19 138.19 85.19 236.64 0 98.44-27.99 177.32-83.93 236.65-55.97 59.31-129.8 88.97-221.5 88.97z"/></clipPath></defs><path d="M4489.9 3307.44v779.42h105.66v-779.42H4489.9M5123.58 3462.39c31.85 34.41 47.79 77.15 47.79 128.2 0 51.05-15.74 93.79-47.19 128.23-31.46 34.42-73.12 51.65-124.95 51.65-51.06 0-91.63-17.23-121.69-51.65-30.09-34.44-45.12-77.59-45.12-129.4 0-51.85 15.23-94.6 45.7-128.24 30.46-33.64 70.83-50.44 121.11-50.44 51.05 0 92.48 17.2 124.35 51.65zm155.23 381.09v-533.66c0-77.96-24.73-140.39-74.19-187.29-49.47-46.89-115.97-70.36-199.46-70.36-72.83 0-133.18 18.82-181.06 56.41-47.88 37.59-76.37 89.24-85.48 154.94h99.74c7.9-38.79 26.71-68.95 56.38-90.54 29.69-21.56 66.5-32.34 110.42-32.34 55.01 0 97.55 15.03 127.63 45.09 30.07 30.09 45.12 70.67 45.12 121.71v112.77c-18.61-30.86-45.04-54.89-79.27-72.1-34.22-17.21-73.1-25.84-116.63-25.84-50.26 0-94.68 11.48-133.27 34.44-38.58 22.93-68.17 54.7-88.75 95.27-20.58 40.57-30.87 85.99-30.87 136.23 0 51.05 10.49 97.28 31.46 138.62 20.97 41.37 50.95 73.8 89.95 97.37 38.96 23.53 83.98 35.31 135.04 35.31 44.72 0 83.89-9.1 117.53-27.31s59.76-43.55 78.36-75.98l5.94 87.26h91.41M5893.23 3843.48v-536.04h-82.51l-9.51 77.76c-17.02-30.86-40.57-54.03-70.64-69.46-30.08-15.43-64.51-23.13-103.29-23.13-62.53 0-111.01 18.68-145.43 56.1-34.43 37.39-51.66 87.73-51.66 151.06v343.71h100.92v-324.73c0-49.47 11.18-84.68 33.55-105.64 22.34-20.98 53.72-31.46 94.09-31.46 40.35 0 72.72 13.96 97.06 41.84 24.33 27.92 36.49 65.01 36.49 111.3v308.69h100.93M6419.77 3436.85c32.43 35.21 48.66 82.51 48.66 141.89 0 57.37-16.02 103.27-48.08 137.71-32.05 34.41-74.01 51.65-125.85 51.65-53.42 0-95.97-17.61-127.63-52.86-31.67-35.21-47.48-81.51-47.48-138.88 0-57.41 15.81-103.8 47.48-139.21 31.66-35.42 73.41-53.12 125.26-53.12 52.64 0 95.18 17.61 127.64 52.82zm151.96 406.63v-536.04h-94.98v94.96c-17.81-33.24-45.12-59.85-81.93-79.83-36.8-19.98-78.36-29.96-124.64-29.96-49.49 0-93.5 11.78-132.09 35.31-38.58 23.54-68.56 56.58-89.93 99.12-21.37 42.54-32.07 91.51-32.07 146.95 0 56.57 11.18 106.54 33.54 149.89 22.36 43.31 53.14 76.75 92.32 100.32 39.18 23.53 84.29 35.31 135.33 35.31 45.51 0 85.7-9.1 120.52-27.31 34.82-18.21 61.93-43.15 81.33-74.78l8.9 86.06h83.7M6737.94 4141.49h100.93v-834.05h-100.93v834.05M7376.07 3436.85c32.44 35.21 48.68 82.51 48.68 141.89 0 57.37-16.02 103.27-48.09 137.71-32.05 34.41-74.01 51.65-125.84 51.65-53.43 0-95.97-17.61-127.64-52.86-31.67-35.21-47.48-81.51-47.48-138.88 0-57.41 15.81-103.8 47.48-139.21 31.67-35.42 73.41-53.12 125.26-53.12 52.63 0 95.18 17.61 127.63 52.82zm151.97 704.64v-834.05h-82.51l-8.9 96.17c-17.02-33.24-43.94-60.05-80.74-80.44-36.81-20.38-78.36-30.56-124.66-30.56-50.27 0-94.97 11.78-134.16 35.31-39.18 23.54-69.76 56.78-91.71 99.72-21.96 42.95-32.96 92.52-32.96 148.72 0 55.8 11.18 105.14 33.55 148.09 22.35 42.95 53.13 76.18 92.31 99.75 39.18 23.53 83.89 35.31 134.16 35.31 44.71 0 84.29-8.53 118.71-25.54 34.44-17 60.94-40.57 79.55-70.63v378.15h97.36M8058.74 3436.85c32.43 35.21 48.67 82.51 48.67 141.89 0 57.37-16.01 103.27-48.08 137.71-32.06 34.41-74.01 51.65-125.84 51.65-53.43 0-95.97-17.61-127.64-52.86-31.66-35.21-47.48-81.51-47.48-138.88 0-57.41 15.82-103.8 47.48-139.21 31.67-35.42 73.41-53.12 125.25-53.12 52.64 0 95.19 17.61 127.64 52.82zm151.97 406.63v-536.04h-94.98v94.96c-17.81-33.24-45.13-59.85-81.92-79.83-36.81-19.98-78.37-29.96-124.66-29.96-49.47 0-93.49 11.78-132.09 35.31-38.57 23.54-68.54 56.58-89.92 99.12-21.37 42.54-32.07 91.51-32.07 146.95 0 56.57 11.18 106.54 33.54 149.89 22.37 43.31 53.14 76.75 92.32 100.32 39.18 23.53 84.28 35.31 135.33 35.31 45.51 0 85.69-9.1 120.53-27.31 34.8-18.21 61.92-43.15 81.31-74.78l8.91 86.06h83.7M8744.37 3436.85c32.44 35.21 48.67 82.51 48.67 141.89 0 57.37-16.02 103.27-48.08 137.71-32.05 34.41-74.01 51.65-125.85 51.65-53.42 0-95.97-17.61-127.63-52.86-31.67-35.21-47.48-81.51-47.48-138.88 0-57.41 15.81-103.8 47.48-139.21 31.66-35.42 73.41-53.12 125.26-53.12 52.63 0 95.18 17.61 127.63 52.82zm151.97 704.64v-834.05h-82.51l-8.91 96.17c-17.02-33.24-43.93-60.05-80.73-80.44-36.81-20.38-78.36-30.56-124.66-30.56-50.27 0-94.98 11.78-134.16 35.31-39.18 23.54-69.76 56.78-91.72 99.72-21.95 42.95-32.95 92.52-32.95 148.72 0 55.8 11.18 105.14 33.54 148.09s53.14 76.18 92.32 99.75c39.18 23.53 83.89 35.31 134.16 35.31 44.71 0 84.29-8.53 118.71-25.54 34.43-17 60.94-40.57 79.55-70.63v378.15h97.36M4893.86 2314.16c43.33 24.34 76.97 58.57 100.92 102.69 23.93 44.13 35.91 94.5 35.91 151.07 0 58.17-11.98 109.62-35.91 154.35-23.95 44.71-57.59 79.26-100.92 103.59s-93.69 36.52-151.07 36.52h-147.23v-584.74h147.23c57.38 0 107.74 12.18 151.07 36.52zm59.36 595.69c59.57-33.24 105.96-79.44 139.2-138.62 33.25-59.14 49.87-126.92 49.87-203.31 0-76.36-16.33-143.63-48.97-201.81-32.65-58.18-78.86-103.7-138.61-136.54-59.76-32.87-128.04-49.27-204.8-49.27H4489.9v779.42h260.01c75.98 0 143.75-16.63 203.31-49.87M5277.04 2716.34h100.9V2180.3h-100.9zm-2.96 152.57c-14.26 14.22-21.38 31.83-21.38 52.82 0 20.18 7.12 37.19 21.38 51.05 14.24 13.86 31.85 20.78 52.82 20.78 21.76 0 39.56-6.92 53.42-20.78 13.86-13.86 20.78-30.87 20.78-51.05 0-20.18-6.82-37.59-20.48-52.25-13.65-14.63-31.56-21.96-53.72-21.96-20.97 0-38.58 7.13-52.82 21.39M5589.3 2716.34l62.91-169.17c19.39-51.86 38.68-103.51 57.89-154.95 19.18-51.45 31.95-86.46 38.28-105.07 7.13 19.37 20.48 54.82 40.07 106.28 19.59 51.4 39.47 102.69 59.65 153.74l67.08 169.17h105.67l-223.79-536.04h-100.92l-216.07 536.04h109.23M6488.61 2490.16c-.78 47.9-15.43 85.99-43.91 114.28-28.5 28.28-65.71 42.44-111.6 42.44-48.69 0-88.45-14.16-119.33-42.44-30.86-28.29-47.1-66.38-48.67-114.28zm14.27-276.63c-47.12-32.06-102.11-48.06-165.04-48.06-54.22 0-102.01 11.95-143.35 35.92-41.36 23.93-73.43 57.37-96.17 100.32-22.76 42.91-34.14 92.48-34.14 148.68 0 55.8 11.58 105.18 34.73 148.12 23.16 42.92 55.21 75.99 96.17 99.12 40.96 23.16 87.36 34.74 139.21 34.74 51.04 0 95.77-10.78 134.14-32.37 38.4-21.55 68.37-51.54 89.95-89.91 21.55-38.39 32.34-82.34 32.34-131.78 0-26.94-1.58-47.29-4.74-61.15h-422.07c1.58-51.05 18.41-91.93 50.46-122.58 32.06-30.69 73.21-46.03 123.47-46.03 37.2 0 69.76 8.33 97.66 24.94 27.9 16.64 47.19 38.99 57.87 67.08h98.54c-12.26-52.62-41.95-94.97-89.03-127.04M7009.81 2716.34v-86.06c-9.11 1.57-21.75 2.34-37.97 2.34-48.7 0-86.2-14.43-112.5-43.31-26.33-28.89-39.48-68.86-39.48-119.91v-289.1h-100.92v536.04h89.05l11.87-81.34c9.09 27.71 26.21 48.97 51.35 63.83 25.13 14.83 54.32 22.26 87.55 22.26 17.81 0 34.83-1.6 51.05-4.75M7138.92 2210.56c-40.17 30.09-61.85 69.86-65 119.33h98.54c2.37-27.71 14.24-49.07 35.62-64.1 21.36-15.07 49.64-22.56 84.88-22.56 34.83 0 61.94 6.93 81.33 20.78 19.39 13.83 29.08 33.41 29.08 58.75 0 24.93-7.72 42.84-23.15 53.72-15.43 10.88-35.23 18.92-59.36 24.04l-94.98 21.99c-47.1 10.68-81.83 28.69-104.17 53.99-22.37 25.35-33.54 56.2-33.54 92.62 0 49.48 18.69 89.04 56.09 118.73 37.4 29.66 85.97 44.52 145.74 44.52 60.94 0 110.31-15.23 148.1-45.73 37.79-30.45 57.49-70.82 59.06-121.09h-98.53c-.8 27.71-11.37 49.46-31.77 65.3-20.38 15.83-46.4 23.76-78.05 23.76-30.08 0-53.93-6.76-71.54-20.18-17.6-13.46-26.4-32.27-26.4-56.4 0-22.56 7.01-39 21.06-49.27 14.05-10.31 32.54-17.81 55.5-22.57l108.04-24.34c44.72-9.9 77.96-28.01 99.73-54.32 21.76-26.31 32.66-58.08 32.66-95.26 0-51.05-19.5-91.62-58.49-121.71-38.97-30.06-91.11-45.09-156.41-45.09-62.53 0-113.88 15.03-154.04 45.09M7643.2 2716.34h100.91V2180.3H7643.2Zm-2.96 152.57c-14.25 14.22-21.37 31.83-21.37 52.82 0 20.18 7.12 37.19 21.37 51.05 14.24 13.86 31.85 20.78 52.83 20.78 21.75 0 39.56-6.92 53.41-20.78 13.86-13.86 20.79-30.87 20.79-51.05 0-20.18-6.82-37.59-20.48-52.25-13.66-14.63-31.57-21.96-53.72-21.96-20.98 0-38.59 7.13-52.83 21.39M8282.54 2309.71c32.44 35.21 48.67 82.51 48.67 141.89 0 57.37-16.02 103.26-48.09 137.71-32.05 34.41-74 51.65-125.84 51.65-53.41 0-95.96-17.61-127.63-52.86-31.66-35.21-47.48-81.51-47.48-138.88 0-57.4 15.82-103.8 47.48-139.21 31.67-35.42 73.41-53.13 125.26-53.13 52.64 0 95.18 17.61 127.63 52.83zm151.97 704.64V2180.3H8352l-8.9 96.16c-17.03-33.23-43.94-60.04-80.75-80.43-36.79-20.39-78.36-30.56-124.65-30.56-50.27 0-94.98 11.79-134.16 35.31-39.18 23.54-69.75 56.78-91.71 99.72-21.96 42.95-32.95 92.52-32.95 148.72 0 55.8 11.17 105.14 33.53 148.09 22.36 42.94 53.15 76.18 92.33 99.75 39.18 23.53 83.87 35.31 134.16 35.31 44.69 0 84.27-8.53 118.71-25.54 34.42-17 60.93-40.57 79.55-70.62v378.14h97.35M8965.19 2309.71c32.44 35.21 48.68 82.51 48.68 141.89 0 57.37-16.02 103.26-48.09 137.71-32.05 34.41-74.01 51.65-125.84 51.65-53.43 0-95.97-17.61-127.64-52.86-31.67-35.21-47.48-81.51-47.48-138.88 0-57.4 15.81-103.8 47.48-139.21 31.67-35.42 73.41-53.13 125.26-53.13 52.63 0 95.18 17.61 127.63 52.83zm151.97 406.63V2180.3h-94.98v94.96c-17.81-33.24-45.12-59.85-81.93-79.83-36.79-19.98-78.36-29.96-124.65-29.96-49.47 0-93.49 11.79-132.08 35.31-38.58 23.54-68.56 56.57-89.93 99.12-21.37 42.54-32.07 91.52-32.07 146.95 0 56.57 11.18 106.54 33.55 149.89 22.35 43.31 53.13 76.75 92.31 100.32 39.18 23.53 84.29 35.31 135.33 35.31 45.51 0 85.7-9.1 120.52-27.31 34.82-18.21 61.93-43.15 81.33-74.78l8.91 86.06h83.69M9650.82 2309.71c32.44 35.21 48.67 82.51 48.67 141.89 0 57.37-16.01 103.26-48.08 137.71-32.06 34.41-74.01 51.65-125.84 51.65-53.42 0-95.97-17.61-127.64-52.86-31.66-35.21-47.48-81.51-47.48-138.88 0-57.4 15.82-103.8 47.48-139.21 31.67-35.42 73.41-53.13 125.26-53.13 52.64 0 95.18 17.61 127.63 52.83zm151.97 704.64V2180.3h-82.51l-8.9 96.16c-17.03-33.23-43.94-60.04-80.75-80.43-36.79-20.39-78.36-30.56-124.64-30.56-50.28 0-94.98 11.79-134.16 35.31-39.18 23.54-69.76 56.78-91.72 99.72-21.96 42.95-32.95 92.52-32.95 148.72 0 55.8 11.17 105.14 33.53 148.09 22.37 42.94 53.15 76.18 92.33 99.75 39.18 23.53 83.87 35.31 134.16 35.31 44.69 0 84.27-8.53 118.71-25.54 34.42-17 60.94-40.57 79.55-70.62v378.14h97.35M4489.9 1053.15v779.43h105.66v-779.43H4489.9M5183.83 1547.35c36.42-38.59 54.62-92.71 54.62-162.37v-331.83h-102.1v308.7c0 101.28-40.95 151.97-122.88 151.97-44.72 0-80.05-13.36-105.96-40.07-25.92-26.71-38.88-61.06-38.88-103v-316.42h-100.92v534.87H4852l9.5-75.38c16.22 27.67 40.37 49.84 72.43 66.47 32.05 16.64 66.67 24.94 103.88 24.94 60.93 0 109.62-19.31 146.02-57.88M5400.22 1470.17c23.53 42.94 56.19 76.18 97.94 99.75 41.74 23.53 89.73 35.31 143.96 35.31 68.85 0 126.82-17.6 173.92-52.86 47.09-35.2 75.39-82.91 84.89-143.02h-103.28c-7.92 33.24-25.93 59.34-54.03 78.33-28.1 19.01-62.32 28.51-102.69 28.51-51.86 0-93.79-17.44-125.84-52.25s-48.09-82.51-48.09-143.06c0-58.18 15.43-104.97 46.31-140.39 30.86-35.41 73.39-53.12 127.62-53.12 40.37 0 74.79 9.67 103.3 29.08 28.48 19.39 46.29 44.9 53.42 76.56h103.28c-9.9-58.15-38.5-105.17-85.77-140.96-47.3-35.85-104.57-53.72-171.86-53.72-55.01 0-103.58 11.79-145.72 35.31-42.16 23.54-74.8 56.77-97.96 99.72-23.15 42.95-34.73 92.52-34.73 148.72 0 55.8 11.78 105.14 35.33 148.09M6034.5 1887.21h100.93v-834.06H6034.5v834.06M6757.54 1589.2v-536.05h-82.51l-9.51 77.77c-17.01-30.86-40.57-54.03-70.65-69.46-30.07-15.44-64.5-23.13-103.28-23.13-62.54 0-111 18.68-145.44 56.1-34.42 37.39-51.65 87.74-51.65 151.07v343.7h100.93v-324.73c0-49.47 11.18-84.69 33.53-105.63 22.35-21 53.73-31.47 94.1-31.47 40.35 0 72.72 13.96 97.06 41.84 24.33 27.92 36.5 65.01 36.5 111.3v308.69h100.92M6950.17 1083.42c-40.18 30.1-61.85 69.86-65.01 119.33h98.54c2.37-27.71 14.24-49.07 35.62-64.1 21.37-15.07 49.65-22.57 84.89-22.57 34.82 0 61.93 6.94 81.32 20.79 19.39 13.83 29.09 33.41 29.09 58.75 0 24.94-7.72 42.85-23.16 53.73-15.43 10.87-35.22 18.91-59.36 24.03l-94.97 21.99c-47.1 10.67-81.83 28.68-104.17 53.99-22.38 25.34-33.55 56.21-33.55 92.62 0 49.47 18.7 89.04 56.09 118.73 37.41 29.66 85.97 44.52 145.74 44.52 60.94 0 110.31-15.23 148.11-45.72 37.79-30.47 57.49-70.83 59.06-121.11h-98.53c-.81 27.71-11.38 49.47-31.77 65.31-20.39 15.83-46.41 23.76-78.05 23.76-30.08 0-53.93-6.76-71.54-20.19-17.6-13.45-26.41-32.26-26.41-56.39 0-22.56 7.01-39 21.07-49.28 14.05-10.3 32.54-17.8 55.5-22.56l108.04-24.33c44.71-9.91 77.96-28.02 99.72-54.33 21.76-26.31 32.66-58.08 32.66-95.26 0-51.05-19.5-91.61-58.48-121.71-38.98-30.06-91.11-45.09-156.41-45.09-62.53 0-113.88 15.03-154.04 45.09M7454.43 1589.2h100.91v-536.05h-100.91zm-2.96 152.57c-14.25 14.23-21.37 31.83-21.37 52.82 0 20.18 7.12 37.19 21.37 51.04 14.24 13.86 31.85 20.8 52.83 20.8 21.74 0 39.56-6.94 53.41-20.8 13.86-13.85 20.8-30.86 20.8-51.04 0-20.19-6.84-37.59-20.49-52.26-13.67-14.63-31.57-21.95-53.72-21.95-20.98 0-38.59 7.13-52.83 21.39M7946.55 1687.74l156.71 172.76 58.78-57-184.02-148.43zm-100.31-504.58c34.42-36.41 78.34-54.62 131.78-54.62 55 0 99.82 18.21 134.44 54.62 34.63 36.39 51.95 82.32 51.95 137.72 0 55.8-17.21 102.09-51.65 138.91-34.42 36.79-79.34 55.2-134.74 55.2-53.44 0-97.36-18.41-131.78-55.2-34.44-36.82-51.65-83.11-51.65-138.91 0-55.4 17.21-101.33 51.65-137.72zm-119.62 282.25c24.34 42.95 58.36 76.99 102.09 102.13 43.74 25.11 93.51 37.69 149.31 37.69s105.86-12.58 150.17-37.69c44.33-25.14 78.66-59.18 103-102.13 24.34-42.94 36.5-91.11 36.5-144.53 0-52.62-12.36-100.52-37.09-143.67-24.74-43.11-58.97-77.05-102.7-101.79-43.74-24.74-93.69-37.09-149.88-37.09-55.01 0-104.39 12.35-148.12 37.09-43.73 24.74-77.96 58.57-102.69 101.52-24.74 42.91-37.11 90.91-37.11 143.94 0 53.42 12.18 101.59 36.52 144.53M8813.22 1547.35c36.43-38.59 54.62-92.71 54.62-162.37v-331.83h-102.1v308.7c0 101.28-40.96 151.97-122.88 151.97-44.72 0-80.05-13.36-105.96-40.07-25.92-26.71-38.87-61.06-38.87-103v-316.42H8397.1v534.87h84.29l9.51-75.38c16.21 27.67 40.37 49.84 72.41 66.47 32.05 16.64 66.68 24.94 103.89 24.94 60.93 0 109.63-19.31 146.02-57.88" style="fill:#4a8bd1;fill-opacity:1;fill-rule:nonzero;stroke:none" transform="matrix(.13333 0 0 -.13333 0 690.64)"/><g clip-path="url(#a)" transform="matrix(.13333 0 0 -.13333 0 690.64)"><path d="M3490.78 2908.86c-111.15 0-201.25 90.1-201.25 201.25s90.1 201.25 201.25 201.25 201.25-90.1 201.25-201.25-90.1-201.25-201.25-201.25zm161.55-1328.51h-320.57v1158.62h320.57zm-667.69 1648.7c-111.14 0-201.25 90.1-201.25 201.25s90.11 201.25 201.25 201.25c111.15 0 201.25-90.1 201.25-201.25s-90.1-201.25-201.25-201.25zm160.52-1648.7h-238.97l-47.53 155.24c-39.56-57.23-95.51-103.08-167.86-137.57-72.37-34.5-151.88-51.75-238.53-51.75-110.24 0-208.48 25.46-294.71 76.36-86.26 50.9-153.35 123.25-201.31 217.09-47.96 93.8-71.94 201.3-71.94 322.46 0 120.32 23.98 227.37 71.94 321.21 47.96 93.81 115.05 166.17 201.31 217.08 86.23 50.91 184.47 76.37 294.71 76.37 80.76 0 153.54-12.43 218.34-37.24 64.78-24.83 116.94-60.39 156.5-106.65v426.21h318.05zM1591.7 2908.86c-111.14 0-201.25 90.1-201.25 201.25s90.11 201.25 201.25 201.25c111.15 0 201.25-90.1 201.25-201.25s-90.1-201.25-201.25-201.25zm160.29-1328.51h-320.57v1158.62h320.57zm1561.27 2561.14H997.207V1053.43H4085.27v2316.04c0 426.37-345.64 772.02-772.01 772.02" style="fill:url(#b);fill-opacity:1;fill-rule:nonzero;stroke:none"/></g><g clip-path="url(#c)" transform="matrix(.13333 0 0 -.13333 0 690.64)"><path d="M2516.63 2490.33c-93.4 0-167.46-30.09-222.14-90.24-54.7-60.17-82.03-138.64-82.03-235.38 0-96.77 27.96-175.24 83.93-235.38 55.94-60.17 128.52-90.25 217.72-90.25 91.7 0 165.96 29.67 222.76 88.99 56.79 59.31 85.19 138.19 85.19 236.64 0 98.44-27.99 177.32-83.93 236.65-55.97 59.31-129.8 88.97-221.5 88.97" style="fill:url(#d);fill-opacity:1;fill-rule:nonzero;stroke:none"/></g></svg>