<?xml version="1.0" encoding="UTF-8" standalone="no"?>
<svg
   xmlns:dc="http://purl.org/dc/elements/1.1/"
   xmlns:cc="http://creativecommons.org/ns#"
   xmlns:rdf="http://www.w3.org/1999/02/22-rdf-syntax-ns#"
   xmlns:svg="http://www.w3.org/2000/svg"
   xmlns="http://www.w3.org/2000/svg"
   xmlns:sodipodi="http://sodipodi.sourceforge.net/DTD/sodipodi-0.dtd"
   xmlns:inkscape="http://www.inkscape.org/namespaces/inkscape"
   version="1.1"
   id="Layer_1"
   x="0"
   y="0"
   viewBox="0 0 1080 1080"
   xml:space="preserve"
   sodipodi:docname="idi.svg"
   width="1080"
   height="1080"
   inkscape:version="1.0.2 (e86c870879, 2021-01-15)"><metadata
   id="metadata29"><rdf:RDF><cc:Work
       rdf:about=""><dc:format>image/svg+xml</dc:format><dc:type
         rdf:resource="http://purl.org/dc/dcmitype/StillImage" /><dc:title></dc:title></cc:Work></rdf:RDF></metadata><defs
   id="defs27" /><sodipodi:namedview
   pagecolor="#ffffff"
   bordercolor="#666666"
   borderopacity="1"
   objecttolerance="10"
   gridtolerance="10"
   guidetolerance="10"
   inkscape:pageopacity="0"
   inkscape:pageshadow="2"
   inkscape:window-width="1920"
   inkscape:window-height="1017"
   id="namedview25"
   showgrid="false"
   inkscape:zoom="0.57708333"
   inkscape:cx="960"
   inkscape:cy="540"
   inkscape:window-x="-8"
   inkscape:window-y="-8"
   inkscape:window-maximized="1"
   inkscape:current-layer="Layer_1" />
  <style
   id="style2">
    .st0{fill:#b0801e}.st1{fill:#aa5a24}.st2{fill:#e1850a}
  </style>
  
  
  
  
  
  
  <g
   id="g41"
   transform="translate(-410.295,0.345)"><path
     class="st0"
     d="m 432.74,677.18 c 24.31,0 29.26,-12.15 29.26,-34.66 V 535.83 c 0,-22.51 -4.95,-34.66 -29.26,-34.66 v -2.7 l 90.48,-9 v 153.05 c 0,22.51 4.95,34.66 29.26,34.66 v 2.7 H 432.74 Z m 21.6,-249.84 c 0,-20.26 16.66,-34.66 36.91,-34.66 20.26,0 36.46,14.4 36.46,34.66 0,20.71 -16.21,35.11 -36.46,35.11 -20.25,0.01 -36.91,-14.4 -36.91,-35.11 z"
     id="path4" /><path
     class="st1"
     d="m 552.92,588.05 c 0,-54.47 34.66,-98.58 94.53,-98.58 21.16,0 36.46,5.85 46.37,13.51 V 473.5 c 0,-26.11 -11.71,-34.21 -36.01,-34.21 v -2.7 l 97.23,-9 v 214.95 c 0,22.51 4.95,34.66 29.26,34.66 v 2.7 h -88.68 v -24.76 c -13.06,15.76 -32.41,29.71 -61.22,29.71 -51.31,-0.02 -81.48,-45.94 -81.48,-96.8 z m 140.9,63.92 v -131 c -4.5,-14.4 -16.66,-27.46 -32.86,-27.46 -32.41,0 -43.67,54.02 -43.67,91.83 0,45.92 14.4,82.83 45.02,82.83 13.96,0.01 23.86,-7.2 31.51,-16.2 z"
     id="path6" /><path
     class="st2"
     d="m 795.4,677.18 c 24.31,0 29.26,-12.15 29.26,-34.66 V 535.83 c 0,-22.51 -4.95,-34.66 -29.26,-34.66 v -2.7 l 90.48,-9 v 153.05 c 0,22.51 4.95,34.66 29.26,34.66 v 2.7 H 795.4 Z M 817,427.34 c 0,-20.26 16.66,-34.66 36.91,-34.66 20.26,0 36.46,14.4 36.46,34.66 0,20.71 -16.21,35.11 -36.46,35.11 C 833.66,462.46 817,448.05 817,427.34 Z"
     id="path8" /><path
     class="st0"
     d="m 969.37,444.28 h 12.15 v 65.46 h -12.15 z m 78.26,15.53 v 42.36 c 0,17.58 -8.98,26.37 -26.93,26.37 -4.8,0 -9.35,-0.61 -13.65,-1.82 -4.3,-1.22 -7.85,-2.98 -10.66,-5.28 l 5.24,-8.79 a 24.97,24.97 0 0 0 8.27,4.35 32.47,32.47 0 0 0 10.15,1.64 c 5.48,0 9.5,-1.25 12.06,-3.74 2.56,-2.49 3.83,-6.29 3.83,-11.41 v -2.62 a 19.3,19.3 0 0 1 -7.3,4.96 25.76,25.76 0 0 1 -9.44,1.68 c -4.74,0 -9.02,-1.01 -12.86,-3.04 a 22.79,22.79 0 0 1 -9.07,-8.56 c -2.21,-3.68 -3.32,-7.88 -3.32,-12.62 0,-4.74 1.11,-8.93 3.32,-12.58 a 22.55,22.55 0 0 1 9.07,-8.46 27.48,27.48 0 0 1 12.86,-2.99 c 3.61,0 6.9,0.59 9.86,1.78 a 18.12,18.12 0 0 1 7.43,5.42 v -6.64 h 11.14 z m -15.75,33.8 c 2.84,-2.65 4.26,-6.09 4.26,-10.33 0,-4.18 -1.42,-7.58 -4.26,-10.19 -2.84,-2.62 -6.47,-3.93 -10.89,-3.93 -4.49,0 -8.15,1.31 -10.99,3.93 -2.84,2.62 -4.26,6.02 -4.26,10.19 0,4.24 1.42,7.68 4.26,10.33 2.84,2.65 6.5,3.97 10.99,3.97 4.42,0 8.05,-1.32 10.89,-3.97 z m 79.43,-33.8 v 49.93 h -11.13 v -6.36 a 18.51,18.51 0 0 1 -7.01,5.19 22.5,22.5 0 0 1 -9.07,1.82 c -6.67,0 -11.92,-1.85 -15.76,-5.56 -3.83,-3.71 -5.75,-9.21 -5.75,-16.5 v -28.52 h 11.69 v 26.93 c 0,4.49 1.01,7.84 3.04,10.05 2.02,2.21 4.91,3.32 8.65,3.32 4.17,0 7.49,-1.29 9.96,-3.88 2.46,-2.59 3.69,-6.31 3.69,-11.18 V 459.8 h 11.69 z m 51.29,4.72 c 3.89,3.52 5.84,8.84 5.84,15.94 v 29.27 h -11.03 v -6.08 a 13.6,13.6 0 0 1 -6.12,5 c -2.65,1.15 -5.85,1.73 -9.58,1.73 -3.74,0 -7.01,-0.64 -9.82,-1.92 a 15.14,15.14 0 0 1 -6.5,-5.33 13.5,13.5 0 0 1 -2.29,-7.72 c 0,-4.49 1.67,-8.09 5,-10.8 3.33,-2.71 8.59,-4.07 15.76,-4.07 h 12.9 v -0.75 c 0,-3.49 -1.04,-6.17 -3.13,-8.04 -2.09,-1.87 -5.19,-2.81 -9.3,-2.81 -2.81,0 -5.57,0.44 -8.28,1.31 -2.71,0.87 -5,2.09 -6.87,3.65 l -4.58,-8.51 a 28.5,28.5 0 0 1 9.45,-4.58 42,42 0 0 1 11.69,-1.59 c 7.33,0.01 12.96,1.78 16.86,5.3 z m -10.66,35.34 a 10.96,10.96 0 0 0 4.82,-5.75 v -5.8 h -12.06 c -6.73,0 -10.1,2.21 -10.1,6.64 0,2.12 0.84,3.8 2.53,5.05 1.68,1.25 4.02,1.87 7.01,1.87 a 15,15 0 0 0 7.8,-2.01 z m 31.46,-59.51 h 11.69 v 69.38 h -11.69 z m 75.93,0 v 69.38 h -11.22 v -6.45 a 18.05,18.05 0 0 1 -7.15,5.33 24.26,24.26 0 0 1 -9.4,1.78 26.3,26.3 0 0 1 -12.95,-3.18 22.82,22.82 0 0 1 -9.02,-9.02 c -2.18,-3.89 -3.27,-8.37 -3.27,-13.42 0,-5.05 1.09,-9.51 3.27,-13.37 2.18,-3.86 5.19,-6.86 9.02,-8.98 3.83,-2.12 8.15,-3.18 12.95,-3.18 3.3,0 6.33,0.56 9.07,1.68 a 18.26,18.26 0 0 1 7.01,5.05 v -25.62 z m -18.8,58.11 a 13.9,13.9 0 0 0 5.33,-5.47 16.72,16.72 0 0 0 1.96,-8.23 c 0,-3.12 -0.66,-5.86 -1.96,-8.23 a 13.9,13.9 0 0 0 -5.33,-5.47 15.04,15.04 0 0 0 -7.58,-1.92 c -2.81,0 -5.33,0.64 -7.58,1.92 a 13.9,13.9 0 0 0 -5.33,5.47 16.72,16.72 0 0 0 -1.96,8.23 c 0,3.12 0.66,5.86 1.96,8.23 a 13.9,13.9 0 0 0 5.33,5.47 15.04,15.04 0 0 0 7.58,1.92 c 2.82,0 5.34,-0.64 7.58,-1.92 z m 70.09,-33.94 c 3.89,3.52 5.84,8.84 5.84,15.94 v 29.27 h -11.03 v -6.08 a 13.6,13.6 0 0 1 -6.12,5 c -2.65,1.15 -5.85,1.73 -9.58,1.73 -3.74,0 -7.01,-0.64 -9.82,-1.92 a 15.14,15.14 0 0 1 -6.5,-5.33 13.5,13.5 0 0 1 -2.29,-7.72 c 0,-4.49 1.67,-8.09 5,-10.8 3.33,-2.71 8.59,-4.07 15.76,-4.07 h 12.9 v -0.75 c 0,-3.49 -1.04,-6.17 -3.13,-8.04 -2.09,-1.87 -5.19,-2.81 -9.3,-2.81 -2.81,0 -5.57,0.44 -8.28,1.31 -2.71,0.87 -5,2.09 -6.87,3.65 l -4.58,-8.51 a 28.5,28.5 0 0 1 9.45,-4.58 42,42 0 0 1 11.69,-1.59 c 7.33,0.01 12.96,1.78 16.86,5.3 z m -10.66,35.34 a 10.96,10.96 0 0 0 4.82,-5.75 v -5.8 h -12.06 c -6.73,0 -10.1,2.21 -10.1,6.64 0,2.12 0.84,3.8 2.53,5.05 1.68,1.25 4.02,1.87 7.01,1.87 a 15,15 0 0 0 7.8,-2.01 z m 80.83,-59.51 v 69.38 h -11.22 v -6.45 a 18.05,18.05 0 0 1 -7.15,5.33 24.26,24.26 0 0 1 -9.4,1.78 26.3,26.3 0 0 1 -12.95,-3.18 22.82,22.82 0 0 1 -9.02,-9.02 c -2.18,-3.89 -3.27,-8.37 -3.27,-13.42 0,-5.05 1.09,-9.51 3.27,-13.37 2.18,-3.86 5.19,-6.86 9.02,-8.98 3.83,-2.12 8.15,-3.18 12.95,-3.18 3.3,0 6.33,0.56 9.07,1.68 a 18.26,18.26 0 0 1 7.01,5.05 V 440.36 Z M 1362,498.47 a 13.9,13.9 0 0 0 5.33,-5.47 16.72,16.72 0 0 0 1.96,-8.23 c 0,-3.12 -0.66,-5.86 -1.96,-8.23 a 13.9,13.9 0 0 0 -5.33,-5.47 15.04,15.04 0 0 0 -7.58,-1.92 c -2.81,0 -5.33,0.64 -7.58,1.92 a 13.9,13.9 0 0 0 -5.33,5.47 16.72,16.72 0 0 0 -1.96,8.23 c 0,3.12 0.66,5.86 1.96,8.23 a 13.9,13.9 0 0 0 5.33,5.47 15.04,15.04 0 0 0 7.58,1.92 c 2.81,0 5.33,-0.64 7.58,-1.92 z m -392.63,32.51 h 28.61 c 6.98,0 13.18,1.36 18.61,4.07 a 30.06,30.06 0 0 1 12.62,11.5 c 2.99,4.95 4.49,10.67 4.49,17.16 0,6.48 -1.5,12.2 -4.49,17.16 a 30.06,30.06 0 0 1 -12.62,11.5 c -5.42,2.71 -11.63,4.07 -18.61,4.07 h -28.61 z m 28.05,55.17 c 4.8,0 9.02,-0.92 12.67,-2.76 a 19.77,19.77 0 0 0 8.42,-7.86 c 1.96,-3.4 2.94,-7.34 2.94,-11.83 0,-4.49 -0.98,-8.43 -2.94,-11.83 a 19.77,19.77 0 0 0 -8.42,-7.86 c -3.65,-1.84 -7.87,-2.76 -12.67,-2.76 h -15.9 v 44.88 h 15.9 z m 48.62,-49.89 a 6.58,6.58 0 0 1 -2.15,-5 c 0,-1.99 0.72,-3.66 2.15,-5 a 7.5,7.5 0 0 1 5.33,-2.01 c 2.12,0 3.89,0.64 5.33,1.92 a 6.2,6.2 0 0 1 2.15,4.82 c 0,2.06 -0.7,3.79 -2.1,5.19 a 7.3,7.3 0 0 1 -5.38,2.1 7.57,7.57 0 0 1 -5.33,-2.02 z m -0.56,10.24 h 11.69 v 49.93 h -11.69 z m 73.78,0 -21.41,49.93 h -12.06 l -21.41,-49.93 h 12.16 l 15.52,37.03 15.99,-37.03 z m 52.64,28.71 h -39.18 a 13.54,13.54 0 0 0 5.38,8.74 c 2.9,2.15 6.5,3.22 10.8,3.22 5.49,0 10.01,-1.81 13.56,-5.42 l 6.26,7.2 a 21.02,21.02 0 0 1 -8.51,6.07 31,31 0 0 1 -11.59,2.06 c -5.49,0 -10.32,-1.09 -14.5,-3.27 a 23.55,23.55 0 0 1 -9.68,-9.12 25.7,25.7 0 0 1 -3.41,-13.23 c 0,-4.86 1.11,-9.24 3.32,-13.14 a 23.52,23.52 0 0 1 9.21,-9.11 26.9,26.9 0 0 1 13.28,-3.27 c 4.86,0 9.21,1.08 13.05,3.22 a 22.97,22.97 0 0 1 8.98,9.07 c 2.15,3.9 3.23,8.4 3.23,13.51 -0.01,0.82 -0.07,1.97 -0.2,3.47 z m -34.55,-16.6 a 13.94,13.94 0 0 0 -4.72,8.84 h 28.33 a 13.81,13.81 0 0 0 -4.58,-8.79 c -2.56,-2.24 -5.74,-3.37 -9.54,-3.37 -3.74,0 -6.9,1.11 -9.49,3.32 z m 74.85,-12.67 v 11.13 c -1,-0.19 -1.9,-0.28 -2.71,-0.28 -4.55,0 -8.1,1.33 -10.66,3.97 -2.56,2.65 -3.83,6.47 -3.83,11.46 v 24.22 h -11.69 V 546.5 h 11.13 v 7.29 c 3.36,-5.24 9.28,-7.85 17.76,-7.85 z m 13.65,49.56 c -3.87,-1.06 -6.95,-2.4 -9.26,-4.02 l 4.49,-8.89 c 2.24,1.5 4.94,2.7 8.09,3.6 a 33.4,33.4 0 0 0 9.3,1.36 c 6.98,0 10.47,-1.84 10.47,-5.52 0,-1.74 -0.89,-2.96 -2.66,-3.64 -1.78,-0.69 -4.63,-1.34 -8.56,-1.96 -4.11,-0.62 -7.47,-1.34 -10.05,-2.15 -2.58,-0.81 -4.83,-2.23 -6.73,-4.25 -1.9,-2.03 -2.85,-4.85 -2.85,-8.46 0,-4.74 1.98,-8.53 5.94,-11.37 3.96,-2.84 9.3,-4.25 16.04,-4.25 3.43,0 6.86,0.39 10.29,1.17 3.43,0.78 6.23,1.82 8.42,3.13 l -4.49,8.88 a 27.73,27.73 0 0 0 -14.31,-3.74 c -3.43,0 -6.03,0.51 -7.81,1.54 -1.78,1.03 -2.66,2.39 -2.66,4.07 0,1.87 0.95,3.2 2.85,3.98 1.9,0.78 4.85,1.52 8.84,2.2 3.99,0.62 7.26,1.34 9.82,2.15 2.56,0.81 4.75,2.18 6.59,4.11 1.84,1.93 2.76,4.68 2.76,8.23 0,4.68 -2.03,8.42 -6.08,11.22 -4.05,2.81 -9.57,4.21 -16.55,4.21 a 45.2,45.2 0 0 1 -11.89,-1.6 z m 45.17,-59.24 a 6.58,6.58 0 0 1 -2.15,-5 c 0,-1.99 0.72,-3.66 2.15,-5 a 7.5,7.5 0 0 1 5.33,-2.01 c 2.12,0 3.89,0.64 5.33,1.92 a 6.2,6.2 0 0 1 2.15,4.82 c 0,2.06 -0.7,3.79 -2.1,5.19 a 7.3,7.3 0 0 1 -5.38,2.1 7.55,7.55 0 0 1 -5.33,-2.02 z m -0.56,10.24 h 11.69 v 49.93 h -11.69 z m 75.92,-19.45 v 69.38 h -11.22 v -6.45 a 18.05,18.05 0 0 1 -7.15,5.33 24.26,24.26 0 0 1 -9.4,1.78 c -4.8,0 -9.12,-1.06 -12.95,-3.18 -3.83,-2.12 -6.84,-5.12 -9.02,-9.02 a 27.03,27.03 0 0 1 -3.27,-13.42 c 0,-5.05 1.09,-9.5 3.27,-13.37 2.18,-3.86 5.19,-6.85 9.02,-8.97 3.83,-2.12 8.15,-3.18 12.95,-3.18 3.3,0 6.33,0.56 9.07,1.68 a 18.36,18.36 0 0 1 7.01,5.05 v -25.62 h 11.69 z m -18.79,58.11 a 13.9,13.9 0 0 0 5.33,-5.47 c 1.31,-2.37 1.96,-5.11 1.96,-8.23 0,-3.12 -0.66,-5.86 -1.96,-8.23 a 13.9,13.9 0 0 0 -5.33,-5.47 15.03,15.03 0 0 0 -7.58,-1.91 c -2.81,0 -5.33,0.64 -7.58,1.91 a 13.9,13.9 0 0 0 -5.33,5.47 c -1.31,2.37 -1.96,5.11 -1.96,8.23 0,3.12 0.66,5.86 1.96,8.23 a 13.9,13.9 0 0 0 5.33,5.47 15.04,15.04 0 0 0 7.58,1.92 c 2.81,0 5.33,-0.64 7.58,-1.92 z m 70.08,-33.94 c 3.89,3.53 5.84,8.84 5.84,15.94 v 29.27 h -11.03 v -6.07 a 13.6,13.6 0 0 1 -6.12,5 c -2.65,1.15 -5.85,1.73 -9.58,1.73 -3.74,0 -7.01,-0.64 -9.82,-1.92 a 15.14,15.14 0 0 1 -6.5,-5.33 13.5,13.5 0 0 1 -2.29,-7.72 c 0,-4.49 1.67,-8.09 5,-10.8 3.33,-2.71 8.59,-4.07 15.76,-4.07 h 12.9 v -0.75 c 0,-3.49 -1.04,-6.17 -3.13,-8.04 -2.09,-1.87 -5.19,-2.81 -9.3,-2.81 -2.81,0 -5.57,0.44 -8.28,1.31 -2.71,0.87 -5,2.09 -6.87,3.65 l -4.58,-8.51 a 28.3,28.3 0 0 1 9.45,-4.58 42,42 0 0 1 11.69,-1.59 c 7.34,0.01 12.97,1.77 16.86,5.29 z m -10.66,35.35 a 10.92,10.92 0 0 0 4.82,-5.75 v -5.8 h -12.06 c -6.73,0 -10.1,2.21 -10.1,6.63 0,2.12 0.84,3.8 2.53,5.05 1.68,1.25 4.02,1.87 7.01,1.87 2.93,0.01 5.53,-0.66 7.8,-2 z m 80.84,-59.52 v 69.38 h -11.22 v -6.45 a 18.05,18.05 0 0 1 -7.15,5.33 24.26,24.26 0 0 1 -9.4,1.78 c -4.8,0 -9.12,-1.06 -12.95,-3.18 -3.83,-2.12 -6.84,-5.12 -9.02,-9.02 a 27.03,27.03 0 0 1 -3.27,-13.42 c 0,-5.05 1.09,-9.5 3.27,-13.37 2.18,-3.86 5.19,-6.85 9.02,-8.97 3.83,-2.12 8.15,-3.18 12.95,-3.18 3.3,0 6.33,0.56 9.07,1.68 a 18.36,18.36 0 0 1 7.01,5.05 v -25.62 h 11.69 z m -18.79,58.11 a 13.9,13.9 0 0 0 5.33,-5.47 c 1.31,-2.37 1.96,-5.11 1.96,-8.23 0,-3.12 -0.66,-5.86 -1.96,-8.23 a 13.9,13.9 0 0 0 -5.33,-5.47 c -2.25,-1.28 -4.77,-1.91 -7.58,-1.91 -2.81,0 -5.33,0.64 -7.58,1.91 a 13.9,13.9 0 0 0 -5.33,5.47 c -1.31,2.37 -1.96,5.11 -1.96,8.23 0,3.12 0.66,5.86 1.96,8.23 a 13.9,13.9 0 0 0 5.33,5.47 c 2.25,1.28 4.77,1.92 7.58,1.92 2.81,0 5.33,-0.64 7.58,-1.92 z m -479.69,32.51 h 12.15 v 65.45 h -12.15 z m 72.18,20.48 c 3.8,3.68 5.7,9.13 5.7,16.37 v 28.61 h -11.69 v -27.11 c 0,-4.36 -1.03,-7.65 -3.09,-9.86 -2.06,-2.21 -4.99,-3.32 -8.79,-3.32 -4.3,0 -7.7,1.3 -10.19,3.88 -2.49,2.59 -3.74,6.31 -3.74,11.18 v 25.24 h -11.69 v -49.93 h 11.13 v 6.45 a 18.27,18.27 0 0 1 7.29,-5.24 26.32,26.32 0 0 1 9.91,-1.78 c 6.31,-0.01 11.36,1.83 15.16,5.51 z m 30.02,42.36 a 24.05,24.05 0 0 1 -9.63,-9.12 25.44,25.44 0 0 1 -3.46,-13.23 c 0,-4.92 1.15,-9.32 3.46,-13.18 a 24.2,24.2 0 0 1 9.58,-9.07 29.2,29.2 0 0 1 13.98,-3.27 c 4.92,0 9.24,1 12.95,2.99 3.71,2 6.5,4.86 8.37,8.6 l -8.98,5.24 c -1.43,-2.3 -3.22,-4.03 -5.38,-5.19 -2.16,-1.16 -4.51,-1.73 -7.06,-1.73 -4.36,0 -7.98,1.42 -10.85,4.25 -2.87,2.84 -4.3,6.63 -4.3,11.36 0,4.74 1.42,8.53 4.26,11.36 2.84,2.84 6.47,4.26 10.89,4.26 2.56,0 4.91,-0.57 7.06,-1.73 2.15,-1.16 3.94,-2.88 5.38,-5.19 l 8.98,5.24 c -1.93,3.74 -4.75,6.63 -8.46,8.65 -3.71,2.02 -7.99,3.04 -12.86,3.04 a 29.38,29.38 0 0 1 -13.93,-3.28 z m 44.88,-66.77 h 11.69 v 69.38 h -11.69 z m 75.37,19.45 v 49.93 h -11.13 v -6.36 a 18.51,18.51 0 0 1 -7.01,5.19 22.51,22.51 0 0 1 -9.07,1.83 c -6.67,0 -11.92,-1.86 -15.76,-5.56 -3.83,-3.71 -5.75,-9.21 -5.75,-16.5 V 633.2 h 11.69 v 26.93 c 0,4.49 1.01,7.84 3.04,10.05 2.02,2.21 4.91,3.32 8.65,3.32 4.17,0 7.49,-1.29 9.96,-3.88 2.47,-2.59 3.7,-6.31 3.7,-11.18 v -25.25 z m 18.89,49 c -3.87,-1.06 -6.95,-2.4 -9.26,-4.02 l 4.49,-8.89 c 2.24,1.5 4.94,2.7 8.09,3.6 a 33.4,33.4 0 0 0 9.3,1.36 c 6.98,0 10.47,-1.84 10.47,-5.52 0,-1.74 -0.89,-2.96 -2.66,-3.64 -1.77,-0.68 -4.63,-1.34 -8.56,-1.96 a 68.91,68.91 0 0 1 -10.05,-2.15 15.44,15.44 0 0 1 -6.73,-4.25 c -1.9,-2.03 -2.85,-4.85 -2.85,-8.46 0,-4.74 1.98,-8.53 5.94,-11.37 3.96,-2.84 9.3,-4.25 16.04,-4.25 3.43,0 6.86,0.39 10.29,1.17 3.43,0.78 6.23,1.82 8.42,3.13 l -4.49,8.88 a 27.72,27.72 0 0 0 -14.3,-3.74 c -3.43,0 -6.03,0.51 -7.81,1.54 -1.78,1.03 -2.66,2.39 -2.66,4.07 0,1.87 0.95,3.2 2.85,3.98 1.9,0.78 4.85,1.52 8.84,2.2 3.99,0.62 7.26,1.34 9.82,2.15 2.56,0.81 4.75,2.18 6.59,4.11 1.84,1.93 2.76,4.68 2.76,8.23 0,4.68 -2.03,8.42 -6.08,11.22 -4.05,2.81 -9.57,4.21 -16.55,4.21 a 45.11,45.11 0 0 1 -11.9,-1.6 z m 45.16,-59.24 a 6.58,6.58 0 0 1 -2.15,-5 c 0,-1.99 0.72,-3.66 2.15,-5 a 7.5,7.5 0 0 1 5.33,-2.01 c 2.12,0 3.89,0.64 5.33,1.91 a 6.2,6.2 0 0 1 2.15,4.82 c 0,2.06 -0.7,3.79 -2.1,5.19 a 7.3,7.3 0 0 1 -5.38,2.1 c -2.12,0 -3.9,-0.66 -5.33,-2.01 z m -0.56,10.24 H 1267 v 49.93 h -11.69 z m 35.81,47.32 a 23.8,23.8 0 0 1 -9.49,-9.12 25.7,25.7 0 0 1 -3.41,-13.23 c 0,-4.92 1.14,-9.32 3.41,-13.18 a 23.95,23.95 0 0 1 9.49,-9.07 28.33,28.33 0 0 1 13.65,-3.27 c 5.11,0 9.69,1.09 13.74,3.27 a 23.95,23.95 0 0 1 9.49,9.07 25.43,25.43 0 0 1 3.41,13.18 c 0,4.93 -1.14,9.34 -3.41,13.23 a 23.8,23.8 0 0 1 -9.49,9.12 28.52,28.52 0 0 1 -13.74,3.27 c -5.04,0 -9.6,-1.09 -13.65,-3.27 z m 24.31,-11.04 c 2.81,-2.87 4.21,-6.64 4.21,-11.32 0,-4.68 -1.4,-8.45 -4.21,-11.31 -2.81,-2.87 -6.36,-4.3 -10.66,-4.3 -4.3,0 -7.84,1.43 -10.61,4.3 -2.77,2.86 -4.16,6.63 -4.16,11.31 0,4.68 1.39,8.45 4.16,11.32 2.77,2.87 6.31,4.3 10.61,4.3 4.3,0 7.86,-1.43 10.66,-4.3 z m -5.98,-55.92 h 13.74 l -16.27,12.81 h -10.1 z m 76.67,24.6 c 3.8,3.68 5.7,9.13 5.7,16.37 v 28.61 h -11.69 v -27.11 c 0,-4.36 -1.03,-7.65 -3.09,-9.86 -2.06,-2.21 -4.99,-3.32 -8.79,-3.32 -4.3,0 -7.7,1.3 -10.19,3.88 -2.49,2.59 -3.74,6.31 -3.74,11.18 v 25.24 h -11.69 v -49.93 h 11.13 v 6.45 a 18.27,18.27 0 0 1 7.29,-5.24 26.32,26.32 0 0 1 9.91,-1.78 c 6.31,-0.01 11.36,1.83 15.16,5.51 z"
     id="path10" /><g
     id="g14">
    <path
   class="st1"
   d="m 685.68,372.9 c 0,-20.26 16.66,-34.66 36.91,-34.66 20.26,0 36.46,14.4 36.46,34.66 0,20.71 -16.21,35.11 -36.46,35.11 -20.26,0 -36.91,-14.4 -36.91,-35.11 z"
   id="path12" />
  </g><g
     id="g18">
    <path
   class="st2"
   d="m 659.38,809.03 c 38.55,31.93 81.22,57.47 126.93,74.49 a 406.06,406.06 0 0 0 142.44,25.86 c 48.41,-0.04 96.8,-8.77 142.43,-25.89 45.71,-17.03 88.37,-42.55 126.94,-74.46 -31.98,38.6 -73.7,69.73 -120.2,90.77 A 362.46,362.46 0 0 1 928.74,931.82 363.04,363.04 0 0 1 779.58,899.77 C 733.1,878.73 691.38,847.6 659.38,809.03 Z"
   id="path16" />
  </g><g
     id="g22">
    <path
   class="st2"
   d="M 1198.12,270.29 C 1159.57,238.36 1116.9,212.82 1071.19,195.8 A 406.3,406.3 0 0 0 928.75,169.93 c -48.41,0.04 -96.8,8.77 -142.43,25.89 -45.71,17.03 -88.37,42.55 -126.94,74.46 31.98,-38.6 73.7,-69.73 120.2,-90.77 a 362.46,362.46 0 0 1 149.18,-32.02 363.04,363.04 0 0 1 149.16,32.05 c 46.49,21.05 88.2,52.17 120.2,90.75 z"
   id="path20" />
  </g></g>
</svg>
